<svg width="30" height="30" viewBox="0 0 30 30" fill="none" xmlns="http://www.w3.org/2000/svg">
<g clip-path="url(#clip0_15_47)" filter="url(#filter0_d_15_47)">
<path d="M20.5 4.5C18.55 4.5 16.45 4.9 15 6C13.55 4.9 11.45 4.5 9.5 4.5C8.05 4.5 6.51 4.72 5.22 5.29C4.49 5.62 4 6.33 4 7.14V18.42C4 19.72 5.22 20.68 6.48 20.36C7.46 20.11 8.5 20 9.5 20C11.06 20 12.72 20.26 14.06 20.92C14.66 21.22 15.34 21.22 15.93 20.92C17.27 20.25 18.93 20 20.49 20C21.49 20 22.53 20.11 23.51 20.36C24.77 20.69 25.99 19.73 25.99 18.42V7.14C25.99 6.33 25.5 5.62 24.77 5.29C23.49 4.72 21.95 4.5 20.5 4.5ZM24 17.23C24 17.86 23.42 18.32 22.8 18.21C22.05 18.07 21.27 18.01 20.5 18.01C18.8 18.01 16.35 18.66 15 19.51V8C16.35 7.15 18.8 6.5 20.5 6.5C21.42 6.5 22.33 6.59 23.2 6.78C23.66 6.88 24 7.29 24 7.76V17.23Z" fill="url(#paint0_linear_15_47)"/>
<path d="M16.98 11.01C16.66 11.01 16.37 10.81 16.27 10.49C16.14 10.1 16.36 9.66998 16.75 9.54998C18.29 9.04998 20.28 8.88998 22.11 9.09998C22.52 9.14998 22.82 9.51998 22.77 9.92998C22.72 10.34 22.35 10.64 21.94 10.59C20.32 10.4 18.55 10.55 17.21 10.98C17.13 10.99 17.05 11.01 16.98 11.01Z" fill="url(#paint1_linear_15_47)"/>
<path d="M16.98 13.67C16.66 13.67 16.37 13.47 16.27 13.15C16.14 12.76 16.36 12.33 16.75 12.21C18.28 11.71 20.28 11.55 22.11 11.76C22.52 11.81 22.82 12.18 22.77 12.59C22.72 13 22.35 13.3 21.94 13.25C20.32 13.06 18.55 13.21 17.21 13.64C17.13 13.66 17.05 13.67 16.98 13.67Z" fill="url(#paint2_linear_15_47)"/>
<path d="M16.98 16.33C16.66 16.33 16.37 16.13 16.27 15.81C16.14 15.42 16.36 14.99 16.75 14.87C18.28 14.37 20.28 14.21 22.11 14.42C22.52 14.47 22.82 14.84 22.77 15.25C22.72 15.66 22.35 15.95 21.94 15.91C20.32 15.72 18.55 15.87 17.21 16.3C17.13 16.32 17.05 16.33 16.98 16.33Z" fill="url(#paint3_linear_15_47)"/>
</g>
<defs>
<filter id="filter0_d_15_47" x="-1" y="0" width="32" height="32" filterUnits="userSpaceOnUse" color-interpolation-filters="sRGB">
<feFlood flood-opacity="0" result="BackgroundImageFix"/>
<feColorMatrix in="SourceAlpha" type="matrix" values="0 0 0 0 0 0 0 0 0 0 0 0 0 0 0 0 0 0 127 0" result="hardAlpha"/>
<feOffset dy="4"/>
<feGaussianBlur stdDeviation="2"/>
<feComposite in2="hardAlpha" operator="out"/>
<feColorMatrix type="matrix" values="0 0 0 0 0 0 0 0 0 0 0 0 0 0 0 0 0 0 0.25 0"/>
<feBlend mode="normal" in2="BackgroundImageFix" result="effect1_dropShadow_15_47"/>
<feBlend mode="normal" in="SourceGraphic" in2="effect1_dropShadow_15_47" result="shape"/>
</filter>
<linearGradient id="paint0_linear_15_47" x1="14.995" y1="4.5" x2="14.995" y2="21.145" gradientUnits="userSpaceOnUse">
<stop offset="0.421875" stop-color="#628ECB"/>
<stop offset="1" stop-color="#395886"/>
</linearGradient>
<linearGradient id="paint1_linear_15_47" x1="19.504" y1="9.00989" x2="19.504" y2="11.01" gradientUnits="userSpaceOnUse">
<stop offset="0.421875" stop-color="#628ECB"/>
<stop offset="1" stop-color="#395886"/>
</linearGradient>
<linearGradient id="paint2_linear_15_47" x1="19.504" y1="11.6699" x2="19.504" y2="13.67" gradientUnits="userSpaceOnUse">
<stop offset="0.421875" stop-color="#628ECB"/>
<stop offset="1" stop-color="#395886"/>
</linearGradient>
<linearGradient id="paint3_linear_15_47" x1="19.504" y1="14.33" x2="19.504" y2="16.33" gradientUnits="userSpaceOnUse">
<stop offset="0.421875" stop-color="#628ECB"/>
<stop offset="1" stop-color="#395886"/>
</linearGradient>
<clipPath id="clip0_15_47">
<rect width="24" height="24" fill="white" transform="translate(3)"/>
</clipPath>
</defs>
</svg>
