<svg width="30" height="30" viewBox="0 0 30 30" fill="none" xmlns="http://www.w3.org/2000/svg">
<g clip-path="url(#clip0_15_57)" filter="url(#filter0_d_15_57)">
<path d="M15.65 15.67C15.79 15.31 15.7 14.9 15.42 14.62L13.33 12.56L13.36 12.53C15.1 10.59 16.34 8.36 17.07 6H19.01C19.55 6 20 5.55 20 5.01V4.99C20 4.45 19.55 4 19.01 4H13V3C13 2.45 12.55 2 12 2C11.45 2 11 2.45 11 3V4H4.99C4.45 4 4 4.45 4 4.99C4 5.54 4.45 5.98 4.99 5.98H15.17C14.5 7.92 13.44 9.75 12 11.35C11.19 10.46 10.51 9.49 9.94 8.47C9.78 8.18 9.49 8 9.16 8C8.47 8 8.03 8.75 8.37 9.35C9 10.48 9.77 11.56 10.67 12.56L6.3 16.87C5.9 17.26 5.9 17.9 6.3 18.29C6.69 18.68 7.32 18.68 7.72 18.29L12 14L14.02 16.02C14.53 16.53 15.4 16.34 15.65 15.67V15.67ZM20.5 10C19.9 10 19.36 10.37 19.15 10.94L15.48 20.74C15.24 21.35 15.7 22 16.35 22C16.74 22 17.09 21.76 17.23 21.39L18.12 19H22.87L23.77 21.39C23.91 21.75 24.26 22 24.65 22C25.3 22 25.76 21.35 25.53 20.74L21.86 10.94C21.64 10.37 21.1 10 20.5 10V10ZM18.88 17L20.5 12.67L22.12 17H18.88V17Z" fill="url(#paint0_linear_15_57)"/>
</g>
<defs>
<filter id="filter0_d_15_57" x="-1" y="0" width="32" height="32" filterUnits="userSpaceOnUse" color-interpolation-filters="sRGB">
<feFlood flood-opacity="0" result="BackgroundImageFix"/>
<feColorMatrix in="SourceAlpha" type="matrix" values="0 0 0 0 0 0 0 0 0 0 0 0 0 0 0 0 0 0 127 0" result="hardAlpha"/>
<feOffset dy="4"/>
<feGaussianBlur stdDeviation="2"/>
<feComposite in2="hardAlpha" operator="out"/>
<feColorMatrix type="matrix" values="0 0 0 0 0 0 0 0 0 0 0 0 0 0 0 0 0 0 0.25 0"/>
<feBlend mode="normal" in2="BackgroundImageFix" result="effect1_dropShadow_15_57"/>
<feBlend mode="normal" in="SourceGraphic" in2="effect1_dropShadow_15_57" result="shape"/>
</filter>
<linearGradient id="paint0_linear_15_57" x1="14.795" y1="2" x2="14.795" y2="22" gradientUnits="userSpaceOnUse">
<stop offset="0.421875" stop-color="#628ECB"/>
<stop offset="1" stop-color="#395886"/>
</linearGradient>
<clipPath id="clip0_15_57">
<rect width="24" height="24" fill="white" transform="translate(3)"/>
</clipPath>
</defs>
</svg>
